<?xml version="1.0" encoding="UTF-8"?>
<svg width="512px" height="512px" viewBox="0 0 512 512" version="1.1" xmlns="http://www.w3.org/2000/svg" xmlns:xlink="http://www.w3.org/1999/xlink">
    <title>Icon</title>
    <defs>
        <linearGradient x1="23.9517424%" y1="4.33701474%" x2="39.7871777%" y2="40.0657752%" id="linearGradient-1">
            <stop stop-color="#FFD29E" offset="0%"></stop>
            <stop stop-color="#FFB159" offset="100%"></stop>
        </linearGradient>
        <path d="M66.2519809,348.722276 C-16.3786517,314.451937 -19.1154083,169.9173 43.5736013,6.5986144 C43.7639107,6.10281663 45.2199507,0.189833878 52.7561501,2.36018429 C64.916083,6.91552375 75.3394304,16.8971313 81.4773175,24.6549661 C93.5471096,39.9102895 96.1766876,53.2394021 96.1766876,53.2394021 C96.1766876,53.2394021 145.000312,38.0848943 223.560411,59.2646171 C235.266039,53.2394021 241.673379,53.53627 257.250262,35.1612181 C272.827144,16.7861662 278.752176,6.5986144 293.064458,0.874161653 C299.678263,-1.33950747 305.19956,0.874161653 307.896907,5.00832858 C337.666595,50.6357075 367.780065,205.778541 371.746448,328.482994 C378.559801,539.26166 148.882614,382.992615 66.2519809,348.722276 Z" id="path-2"></path>
        <filter x="-3.6%" y="-3.1%" width="107.3%" height="106.2%" filterUnits="objectBoundingBox" id="filter-3">
            <feGaussianBlur stdDeviation="6.5" in="SourceAlpha" result="shadowBlurInner1"></feGaussianBlur>
            <feOffset dx="0" dy="0" in="shadowBlurInner1" result="shadowOffsetInner1"></feOffset>
            <feComposite in="shadowOffsetInner1" in2="SourceAlpha" operator="arithmetic" k2="-1" k3="1" result="shadowInnerInner1"></feComposite>
            <feColorMatrix values="0 0 0 0 1   0 0 0 0 1   0 0 0 0 1  0 0 0 1 0" type="matrix" in="shadowInnerInner1"></feColorMatrix>
        </filter>
        <path d="M66.2519809,348.722276 C-16.3786517,314.451937 -19.1154083,169.9173 43.5736013,6.5986144 C43.7639107,6.10281663 45.2199507,0.189833878 52.7561501,2.36018429 C64.916083,6.91552375 75.3394304,16.8971313 81.4773175,24.6549661 C93.5471096,39.9102895 96.1766876,53.2394021 96.1766876,53.2394021 C96.1766876,53.2394021 145.000312,38.0848943 223.560411,59.2646171 C235.266039,53.2394021 241.673379,53.53627 257.250262,35.1612181 C272.827144,16.7861662 278.752176,6.5986144 293.064458,0.874161653 C299.678263,-1.33950747 305.19956,0.874161653 307.896907,5.00832858 C337.666595,50.6357075 367.780065,205.778541 371.746448,328.482994 C378.559801,539.26166 148.882614,382.992615 66.2519809,348.722276 Z" id="path-4"></path>
        <filter x="-3.6%" y="-3.1%" width="107.3%" height="106.2%" filterUnits="objectBoundingBox" id="filter-6">
            <feGaussianBlur stdDeviation="6.5" in="SourceAlpha" result="shadowBlurInner1"></feGaussianBlur>
            <feOffset dx="0" dy="0" in="shadowBlurInner1" result="shadowOffsetInner1"></feOffset>
            <feComposite in="shadowOffsetInner1" in2="SourceAlpha" operator="arithmetic" k2="-1" k3="1" result="shadowInnerInner1"></feComposite>
            <feColorMatrix values="0 0 0 0 1   0 0 0 0 1   0 0 0 0 1  0 0 0 1 0" type="matrix" in="shadowInnerInner1"></feColorMatrix>
        </filter>
        <linearGradient x1="78.7370454%" y1="41.9464659%" x2="35.4651866%" y2="70.8032368%" id="linearGradient-7">
            <stop stop-color="#FDE7CE" offset="0%"></stop>
            <stop stop-color="#FFCF98" offset="100%"></stop>
        </linearGradient>
        <path d="M301.604794,11.6140439 C298.094687,8.58618068 288.890604,23.8979851 276.520994,39.5718068 C264.150666,55.2465373 249.377219,70.337137 258.648897,75.3633869 C277.191714,85.4155952 299.724303,89.4607995 315.037472,85.4155952 C330.350642,81.370391 310.206501,19.0339854 301.604794,11.6140439 Z" id="path-8"></path>
        <filter x="-3.9%" y="-3.3%" width="107.7%" height="106.6%" filterUnits="objectBoundingBox" id="filter-9">
            <feGaussianBlur stdDeviation="2" in="SourceAlpha" result="shadowBlurInner1"></feGaussianBlur>
            <feOffset dx="0" dy="1" in="shadowBlurInner1" result="shadowOffsetInner1"></feOffset>
            <feComposite in="shadowOffsetInner1" in2="SourceAlpha" operator="arithmetic" k2="-1" k3="1" result="shadowInnerInner1"></feComposite>
            <feColorMatrix values="0 0 0 0 0.969995471   0 0 0 0 0.914369829   0 0 0 0 0.850797666  0 0 0 1 0" type="matrix" in="shadowInnerInner1"></feColorMatrix>
        </filter>
        <linearGradient x1="34.0188988%" y1="35.5247186%" x2="50%" y2="59.6620036%" id="linearGradient-10">
            <stop stop-color="#FFF5E9" offset="0%"></stop>
            <stop stop-color="#FFDBB3" offset="100%"></stop>
        </linearGradient>
        <radialGradient cx="50%" cy="0%" fx="50%" fy="0%" r="100%" gradientTransform="translate(0.5, 0), scale(0.4484, 1), rotate(90), translate(-0.5, -0)" id="radialGradient-11">
            <stop stop-color="#FFFFFF" offset="0%"></stop>
            <stop stop-color="#E6E6E6" offset="100%"></stop>
        </radialGradient>
        <linearGradient x1="62.9458695%" y1="0%" x2="20.964403%" y2="87.9847036%" id="linearGradient-12">
            <stop stop-color="#FCFCFC" offset="0%"></stop>
            <stop stop-color="#F2F2F2" offset="100%"></stop>
        </linearGradient>
        <radialGradient cx="50%" cy="0%" fx="50%" fy="0%" r="100%" gradientTransform="translate(0.5, 0), scale(0.5316, 1), rotate(90), translate(-0.5, -0)" id="radialGradient-13">
            <stop stop-color="#FFFFFF" offset="0%"></stop>
            <stop stop-color="#E6E6E6" offset="100%"></stop>
        </radialGradient>
        <linearGradient x1="9.40659826%" y1="14.7732913%" x2="50%" y2="100%" id="linearGradient-14">
            <stop stop-color="#F6F6F6" offset="0%"></stop>
            <stop stop-color="#F2F2F2" offset="100%"></stop>
        </linearGradient>
        <path d="M0.0949185527,14.664697 C1.20446337,6.11933003 6.94089442,-5.67942633e-14 26.5217865,-5.67942633e-14 C46.1026786,-5.67942633e-14 59.0911748,6.38703092 59.0911748,14.664697 C59.0911748,22.9423631 45.4518252,41.9636804 26.5217865,41.9636804 C7.59174779,41.9636804 -1.01462627,23.210064 0.0949185527,14.664697 Z" id="path-15"></path>
        <path d="M352.456057,163.658353 C357.125735,163.658353 361.014134,167.241344 361.395263,171.895442 L373.435584,318.923971 L373.435584,318.923971 L331.47653,318.923971 L343.516851,171.895442 C343.89798,167.241344 347.78638,163.658353 352.456057,163.658353 Z" id="path-17"></path>
        <filter x="-32.9%" y="-8.7%" width="165.8%" height="117.4%" filterUnits="objectBoundingBox" id="filter-18">
            <feGaussianBlur stdDeviation="6.5" in="SourceAlpha" result="shadowBlurInner1"></feGaussianBlur>
            <feOffset dx="7" dy="1" in="shadowBlurInner1" result="shadowOffsetInner1"></feOffset>
            <feComposite in="shadowOffsetInner1" in2="SourceAlpha" operator="arithmetic" k2="-1" k3="1" result="shadowInnerInner1"></feComposite>
            <feColorMatrix values="0 0 0 0 0.513643569   0 0 0 0 0.513643569   0 0 0 0 0.513643569  0 0 0 0.5 0" type="matrix" in="shadowInnerInner1"></feColorMatrix>
        </filter>
        <linearGradient x1="42.0771135%" y1="44.672861%" x2="51.6172457%" y2="51.6233496%" id="linearGradient-19">
            <stop stop-color="#525252" offset="0%"></stop>
            <stop stop-color="#2D2B2B" offset="100%"></stop>
        </linearGradient>
        <linearGradient x1="43.1259638%" y1="42.5111492%" x2="51.7719418%" y2="52.364136%" id="linearGradient-20">
            <stop stop-color="#525252" offset="0%"></stop>
            <stop stop-color="#353434" offset="100%"></stop>
        </linearGradient>
        <ellipse id="path-21" cx="8.39181089" cy="8.39273607" rx="8.39181089" ry="8.39273607"></ellipse>
        <filter x="-250.2%" y="-250.2%" width="600.5%" height="600.4%" filterUnits="objectBoundingBox" id="filter-22">
            <feOffset dx="0" dy="0" in="SourceAlpha" result="shadowOffsetOuter1"></feOffset>
            <feGaussianBlur stdDeviation="14" in="shadowOffsetOuter1" result="shadowBlurOuter1"></feGaussianBlur>
            <feComposite in="shadowBlurOuter1" in2="SourceAlpha" operator="out" result="shadowBlurOuter1"></feComposite>
            <feColorMatrix values="0 0 0 0 0.196817852   0 0 0 0 0.934074955   0 0 0 0 0.248803929  0 0 0 1 0" type="matrix" in="shadowBlurOuter1"></feColorMatrix>
        </filter>
        <ellipse id="path-23" cx="64.3372168" cy="8.39273607" rx="8.39181089" ry="8.39273607"></ellipse>
        <filter x="-250.2%" y="-250.2%" width="600.5%" height="600.4%" filterUnits="objectBoundingBox" id="filter-24">
            <feOffset dx="0" dy="0" in="SourceAlpha" result="shadowOffsetOuter1"></feOffset>
            <feGaussianBlur stdDeviation="14" in="shadowOffsetOuter1" result="shadowBlurOuter1"></feGaussianBlur>
            <feComposite in="shadowBlurOuter1" in2="SourceAlpha" operator="out" result="shadowBlurOuter1"></feComposite>
            <feColorMatrix values="0 0 0 0 0.196817852   0 0 0 0 0.934074955   0 0 0 0 0.248803929  0 0 0 1 0" type="matrix" in="shadowBlurOuter1"></feColorMatrix>
        </filter>
        <ellipse id="path-25" cx="120.282623" cy="8.39273607" rx="8.39181089" ry="8.39273607"></ellipse>
        <filter x="-250.2%" y="-250.2%" width="600.5%" height="600.4%" filterUnits="objectBoundingBox" id="filter-26">
            <feOffset dx="0" dy="0" in="SourceAlpha" result="shadowOffsetOuter1"></feOffset>
            <feGaussianBlur stdDeviation="14" in="shadowOffsetOuter1" result="shadowBlurOuter1"></feGaussianBlur>
            <feComposite in="shadowBlurOuter1" in2="SourceAlpha" operator="out" result="shadowBlurOuter1"></feComposite>
            <feColorMatrix values="0 0 0 0 0.196817852   0 0 0 0 0.934074955   0 0 0 0 0.248803929  0 0 0 1 0" type="matrix" in="shadowBlurOuter1"></feColorMatrix>
        </filter>
        <ellipse id="path-27" cx="176.228029" cy="8.39273607" rx="8.39181089" ry="8.39273607"></ellipse>
        <filter x="-250.2%" y="-250.2%" width="600.5%" height="600.4%" filterUnits="objectBoundingBox" id="filter-28">
            <feOffset dx="0" dy="0" in="SourceAlpha" result="shadowOffsetOuter1"></feOffset>
            <feGaussianBlur stdDeviation="14" in="shadowOffsetOuter1" result="shadowBlurOuter1"></feGaussianBlur>
            <feComposite in="shadowBlurOuter1" in2="SourceAlpha" operator="out" result="shadowBlurOuter1"></feComposite>
            <feColorMatrix values="0 0 0 0 0.196817852   0 0 0 0 0.934074955   0 0 0 0 0.248803929  0 0 0 1 0" type="matrix" in="shadowBlurOuter1"></feColorMatrix>
        </filter>
        <path d="M0.311940199,25.6350258 C2.11330712,15.8435004 12.5035287,1.87288867 31.2052492,0.110257095 C49.9069697,-1.65237448 70.9510989,18.1722004 61.6017314,27.1437488 C52.2523638,36.1152972 55.3763364,56.4083914 29.7001473,56.4083914 C4.02395826,56.4083914 -1.48942672,35.4265512 0.311940199,25.6350258 Z" id="path-29"></path>
        <filter x="-18.8%" y="-20.1%" width="137.6%" height="140.1%" filterUnits="objectBoundingBox" id="filter-31">
            <feGaussianBlur stdDeviation="2.8" in="SourceGraphic"></feGaussianBlur>
        </filter>
        <path d="M0.427050523,26.714265 C2.71528822,15.1275754 10.7160001,2.06016948 32.1619253,0.137267445 C53.6078506,-1.78563459 70.9710268,16.9227396 62.0934381,29.3866503 C53.2158495,41.850561 55.9710104,57.4876306 30.2948213,57.4876306 C4.61863224,57.4876306 -1.86118717,38.3009546 0.427050523,26.714265 Z" id="path-32"></path>
        <filter x="-19.9%" y="-19.4%" width="139.9%" height="138.7%" filterUnits="objectBoundingBox" id="filter-34">
            <feGaussianBlur stdDeviation="2.8" in="SourceGraphic"></feGaussianBlur>
        </filter>
    </defs>
    <g id="Icon" stroke="none" stroke-width="1" fill="none" fill-rule="evenodd">
        <rect id="Background" x="0" y="0" width="512" height="512"></rect>
        <g id="编组-8" transform="translate(42, 12)">
            <g id="编组-3" transform="translate(14.2769, 0)">
                <ellipse id="椭圆形" stroke="#979797" stroke-width="1.4" fill="#D8D8D8" cx="194.119784" cy="158.486925" rx="8.39181089" ry="8.39273607"></ellipse>
                <g id="路径">
                    <use fill="url(#linearGradient-1)" fill-rule="evenodd" xlink:href="#path-2"></use>
                    <use fill="black" fill-opacity="1" filter="url(#filter-3)" xlink:href="#path-2"></use>
                    <path stroke="#9F4200" stroke-width="7" d="M291.764681,-2.37554279 C295.874813,-3.75732055 299.481792,-3.76608764 302.54208,-2.91311034 C306.1084,-1.9190897 308.971756,0.250532445 310.82817,3.09581886 C340.764088,48.9779741 371.254673,204.936458 375.244621,328.369917 C376.356777,362.775721 371.2071,387.595241 361.619438,404.928172 C350.598195,424.852784 333.740586,435.160814 313.284845,438.699364 C257.994679,448.263769 175.346031,406.74432 114.418251,375.844746 C95.1836469,366.0899 78.1515239,357.446588 64.9111327,351.955251 C44.4112901,343.453119 28.6240887,328.432872 17.3993423,308.131099 C5.89303049,287.32007 -0.807874104,260.907905 -2.83587875,230.313639 C-6.93557503,168.46605 8.05191275,89.3735142 40.3028008,5.34425129 C40.7483509,4.0427053 42.0821559,0.787846716 45.5376559,-0.766055213 C47.4349513,-1.61924895 50.0547111,-2.06005446 53.7247483,-1.00312026 C66.7668231,3.87131241 77.7644911,14.3213523 84.2221204,22.4833176 C93.036524,33.624071 97.0293897,43.7949667 98.6484264,48.9712363 C111.169181,45.9891468 156.486653,37.8180077 223.176636,55.5378856 C225.273238,54.4999906 227.21021,53.6426853 229.074632,52.8186929 C229.23576,52.7474818 229.396325,52.6765191 229.554126,52.6067039 L230.146677,52.3440505 L230.736794,52.0808697 L231.316545,51.8198612 C231.789925,51.6054855 232.260682,51.3889264 232.730509,51.1671442 L233.303161,50.8938573 C239.243887,48.0263054 245.113396,44.0656888 254.580471,32.8979859 C257.652588,29.2740063 260.347219,25.9700275 262.804431,22.9573955 C273.283498,10.1096735 279.752356,2.42900097 291.764681,-2.37554279 Z"></path>
                </g>
                <mask id="mask-5" fill="white">
                    <use xlink:href="#path-4"></use>
                </mask>
                <g id="路径">
                    <use fill="url(#linearGradient-1)" fill-rule="evenodd" xlink:href="#path-4"></use>
                    <use fill="black" fill-opacity="1" filter="url(#filter-6)" xlink:href="#path-4"></use>
                    <path stroke="#9F4200" stroke-width="7" d="M291.764681,-2.37554279 C295.874813,-3.75732055 299.481792,-3.76608764 302.54208,-2.91311034 C306.1084,-1.9190897 308.971756,0.250532445 310.82817,3.09581886 C340.764088,48.9779741 371.254673,204.936458 375.244621,328.369917 C376.356777,362.775721 371.2071,387.595241 361.619438,404.928172 C350.598195,424.852784 333.740586,435.160814 313.284845,438.699364 C257.994679,448.263769 175.346031,406.74432 114.418251,375.844746 C95.1836469,366.0899 78.1515239,357.446588 64.9111327,351.955251 C44.4112901,343.453119 28.6240887,328.432872 17.3993423,308.131099 C5.89303049,287.32007 -0.807874104,260.907905 -2.83587875,230.313639 C-6.93557503,168.46605 8.05191275,89.3735142 40.3028008,5.34425129 C40.7483509,4.0427053 42.0821559,0.787846716 45.5376559,-0.766055213 C47.4349513,-1.61924895 50.0547111,-2.06005446 53.7247483,-1.00312026 C66.7668231,3.87131241 77.7644911,14.3213523 84.2221204,22.4833176 C93.036524,33.624071 97.0293897,43.7949667 98.6484264,48.9712363 C111.169181,45.9891468 156.486653,37.8180077 223.176636,55.5378856 C225.273238,54.4999906 227.21021,53.6426853 229.074632,52.8186929 C229.23576,52.7474818 229.396325,52.6765191 229.554126,52.6067039 L230.146677,52.3440505 L230.736794,52.0808697 L231.316545,51.8198612 C231.789925,51.6054855 232.260682,51.3889264 232.730509,51.1671442 L233.303161,50.8938573 C239.243887,48.0263054 245.113396,44.0656888 254.580471,32.8979859 C257.652588,29.2740063 260.347219,25.9700275 262.804431,22.9573955 C273.283498,10.1096735 279.752356,2.42900097 291.764681,-2.37554279 Z"></path>
                </g>
                <path d="M37.113436,70.9594023 C61.2204872,58.9542273 86.0331878,50.7818505 111.551538,46.4422717" id="路径-6" stroke="#9F4200" stroke-width="7" stroke-linecap="round" mask="url(#mask-5)"></path>
                <g id="路径-9" mask="url(#mask-5)">
                    <use fill="url(#linearGradient-7)" fill-rule="evenodd" xlink:href="#path-8"></use>
                    <use fill="black" fill-opacity="1" filter="url(#filter-9)" xlink:href="#path-8"></use>
                </g>
                <path d="M1.3729257,176.671187 C12.9142784,163.755964 31.8244907,181.077497 51.3536723,175.578811 C90.6443633,164.516024 112.940873,158.486925 168.477078,178.414957 C226.137974,199.105391 268.227075,153.005369 304.364916,166.879661 C340.502758,180.753953 337.489604,305.447744 304.364916,342.340245 C271.240228,379.232746 189.728487,360.505749 124.090331,365.91896 C90.5874886,368.681956 35.7027173,352.854713 11.1162386,309.556174 C-12.4666623,268.025008 -17.3576318,197.631409 1.3729257,176.671187 Z" id="路径-14" fill="url(#linearGradient-10)" mask="url(#mask-5)"></path>
                <path d="M41.2605339,249.408233 C49.9243574,237.816388 68.1569563,237.816388 95.9583305,249.408233 C122.100754,251.565148 147.963114,247.00512 173.545409,235.728151" id="路径-3" stroke="#2F2F2F" stroke-width="7" stroke-linecap="round" mask="url(#mask-5)"></path>
                <path d="M145.137635,156.388741 C142.908065,144.378437 168.264088,135.667397 189.472812,132.669746 C210.681536,129.672094 254.538485,135.996024 257.058366,149.570183 C259.578246,163.144342 237.128765,182.266344 198.679828,182.266344 C160.230891,182.266344 147.367204,168.399045 145.137635,156.388741 Z" id="路径-4" stroke="#3A3A3A" stroke-width="7" fill="url(#radialGradient-11)" mask="url(#mask-5)"></path>
                <path d="M257.058366,149.570183 C259.578246,163.144342 237.128765,182.266344 198.679828,182.266344 C197.896366,182.266344 197.123528,182.260586 196.361186,182.249204 C192.307218,176.577182 189.923879,169.644737 189.923879,162.159287 C189.923879,149.306155 196.950848,138.083489 207.396462,132.075935 C229.050813,133.053993 255.13211,139.193776 257.058366,149.570183 Z" id="形状结合" stroke="#3A3A3A" stroke-width="7" fill="#2C2C2C" mask="url(#mask-5)"></path>
                <ellipse id="椭圆形" fill="url(#linearGradient-12)" mask="url(#mask-5)" cx="194.119784" cy="144.499032" rx="8.39181089" ry="8.39273607"></ellipse>
                <path d="M19.2007014,152.972205 C19.7160251,146.355673 27.8888603,136.999197 47.9622447,137.537162 C68.0356291,138.075128 83.4168337,145.475738 84.8155204,150.740486 C86.2142071,156.005234 73.4914218,172.474763 47.9625791,172.474763 C22.4337364,172.474763 18.6853776,159.588737 19.2007014,152.972205 Z" id="路径-5" stroke="#3A3A3A" stroke-width="7" fill="url(#radialGradient-13)" mask="url(#mask-5)" transform="translate(52.0384, 154.9949) rotate(5) translate(-52.0384, -154.9949)"></path>
                <path d="M85.0615872,153.613387 C85.8414426,158.091863 76.1444415,169.486554 58.1338497,171.842348 C51.2112881,168.343244 46.7589355,160.907186 47.4738032,152.73621 C48.0080173,146.630115 51.3125963,141.429384 56.0467348,138.254553 C72.5907451,141.459962 84.232664,148.85313 85.0615872,153.613387 Z" id="形状结合" stroke="#3A3A3A" stroke-width="7" fill="#2C2C2C" mask="url(#mask-5)"></path>
                <ellipse id="椭圆形" fill="url(#linearGradient-14)" mask="url(#mask-5)" transform="translate(46.5638, 147.2966) rotate(5) translate(-46.5638, -147.2966)" cx="46.5637759" cy="147.29661" rx="4.89522712" ry="4.89575861"></ellipse>
                <path d="M81.5375371,166.744938 C75.333726,170.854648 70.2385406,173.697802 66.2519809,175.274398 C53.5665782,180.291196 48.1030529,180.48676 35.1725079,187.092446 C12.2812649,198.786646 26.8045901,225.067211 40.6759831,240.312286" id="路径-2" stroke="#9F4200" stroke-width="7" stroke-linecap="round" mask="url(#mask-5)"></path>
                <g id="编组-7" mask="url(#mask-5)">
                    <g transform="translate(24.0856, 188.279)">
                        <mask id="mask-16" fill="white">
                            <use xlink:href="#path-15"></use>
                        </mask>
                        <use id="路径-7" stroke="#000000" stroke-width="7" fill="#2C2C2C" fill-rule="evenodd" xlink:href="#path-15"></use>
                        <ellipse id="椭圆形" stroke="none" fill="#000000" fill-rule="evenodd" mask="url(#mask-16)" cx="1.4986358" cy="26.8588549" rx="10.4897636" ry="10.4909201"></ellipse>
                        <ellipse id="椭圆形备份-4" stroke="none" fill="#000000" fill-rule="evenodd" mask="url(#mask-16)" cx="40.6604199" cy="28.2576443" rx="10.4897636" ry="10.4909201"></ellipse>
                    </g>
                </g>
                <path d="M55.023686,311.736323 C88.7979009,335.356056 128.892108,334.534919 175.306309,309.27291" id="路径-8" stroke="#FFBA6E" stroke-width="7" stroke-linecap="round" mask="url(#mask-5)"></path>
                <path d="M170.146145,117.299568 C176.850898,122.717069 188.467919,112.896556 204.23659,110.716808 C220.005261,108.537059 219.511602,89.5970582 202.511318,92.9356523 C185.511034,96.2742464 163.441393,111.882068 170.146145,117.299568 Z" id="路径-15" fill="#FDE7CE" mask="url(#mask-5)" transform="translate(192.2955, 105.7253) rotate(16) translate(-192.2955, -105.7253)"></path>
                <path d="M31.7895587,122.4339 C37.4530429,126.932322 44.8406292,122.146952 59.1357555,119.235486 C73.4308818,116.324021 72.8919227,99.2074315 55.8916841,102.546186 C38.8914455,105.88494 26.1260745,117.935478 31.7895587,122.4339 Z" id="路径-15备份" fill="#FDE7CE" mask="url(#mask-5)" transform="translate(49.86, 113.197) scale(-1, 1) rotate(11) translate(-49.86, -113.197)"></path>
            </g>
            <g id="编组-2" transform="translate(0, 43.7862)">
                <g id="矩形">
                    <use fill="#353535" fill-rule="evenodd" xlink:href="#path-17"></use>
                    <use fill="black" fill-opacity="1" filter="url(#filter-18)" xlink:href="#path-17"></use>
                    <use stroke="#262626" stroke-width="7" xlink:href="#path-17"></use>
                </g>
                <rect id="矩形" fill="#262626" x="339.868341" y="200.026876" width="25.1754327" height="5.59515738"></rect>
                <rect id="矩形备份" fill="#262626" x="339.868341" y="209.818402" width="25.1754327" height="5.59515738"></rect>
                <path d="M404.403478,318.227603 C410.152169,318.227603 412.285974,318.702447 414.400807,319.833472 C416.245846,320.82021 417.693843,322.268207 418.68058,324.113245 C419.811606,326.228078 420.28645,328.361883 420.28645,334.110575 L420.28645,426.830829 C420.28645,432.57952 419.811606,434.713325 418.68058,436.828159 C417.693843,438.673197 416.245846,440.121194 414.400807,441.107932 C412.285974,442.238957 410.152169,442.713801 404.403478,442.713801 L19.3829721,442.713801 C13.6342807,442.713801 11.5004757,442.238957 9.38564249,441.107932 C7.54060392,440.121194 6.09260686,438.673197 5.10586943,436.828159 C3.97484424,434.713325 3.5,432.57952 3.5,426.830829 L3.5,334.110575 C3.5,328.361883 3.97484424,326.228078 5.10586943,324.113245 C6.09260686,322.268207 7.54060392,320.82021 9.38564249,319.833472 C11.5004757,318.702447 13.6342807,318.227603 19.3829721,318.227603 Z" id="矩形" stroke="#262626" stroke-width="7" fill="url(#linearGradient-19)"></path>
                <path d="M345.660801,318.227603 C351.409493,318.227603 353.543298,318.702447 355.658131,319.833472 C357.50317,320.82021 358.951167,322.268207 359.937904,324.113245 C361.068929,326.228078 361.543774,328.361883 361.543774,334.110575 L361.543774,426.830829 C361.543774,432.57952 361.068929,434.713325 359.937904,436.828159 C358.951167,438.673197 357.50317,440.121194 355.658131,441.107932 C353.543298,442.238957 351.409493,442.713801 345.660801,442.713801 L19.3829721,442.713801 C13.6342807,442.713801 11.5004757,442.238957 9.38564249,441.107932 C7.54060392,440.121194 6.09260686,438.673197 5.10586943,436.828159 C3.97484424,434.713325 3.5,432.57952 3.5,426.830829 L3.50089317,333.686145 C3.52415233,328.255205 4.00311987,326.175208 5.10586943,324.113245 C6.09260686,322.268207 7.54060392,320.82021 9.38564249,319.833472 C11.5004757,318.702447 13.6342807,318.227603 19.3829721,318.227603 Z" id="矩形" stroke="#262626" stroke-width="7" fill="url(#linearGradient-20)"></path>
                <g id="编组" transform="translate(69.9318, 372.078)">
                    <g id="椭圆形">
                        <use fill="black" fill-opacity="1" filter="url(#filter-22)" xlink:href="#path-21"></use>
                        <ellipse stroke="#0BAC17" stroke-width="2.8" stroke-linejoin="square" fill="#3CD847" fill-rule="evenodd" cx="8.39181089" cy="8.39273607" rx="6.99181089" ry="6.99273607"></ellipse>
                    </g>
                    <g id="椭圆形备份">
                        <use fill="black" fill-opacity="1" filter="url(#filter-24)" xlink:href="#path-23"></use>
                        <ellipse stroke="#0BAC17" stroke-width="2.8" stroke-linejoin="square" fill="#3CD847" fill-rule="evenodd" cx="64.3372168" cy="8.39273607" rx="6.99181089" ry="6.99273607"></ellipse>
                    </g>
                    <g id="椭圆形备份-2">
                        <use fill="black" fill-opacity="1" filter="url(#filter-26)" xlink:href="#path-25"></use>
                        <ellipse stroke="#0BAC17" stroke-width="2.8" stroke-linejoin="square" fill="#3CD847" fill-rule="evenodd" cx="120.282623" cy="8.39273607" rx="6.99181089" ry="6.99273607"></ellipse>
                    </g>
                    <g id="椭圆形备份-3">
                        <use fill="black" fill-opacity="1" filter="url(#filter-28)" xlink:href="#path-27"></use>
                        <ellipse stroke="#0BAC17" stroke-width="2.8" stroke-linejoin="square" fill="#3CD847" fill-rule="evenodd" cx="176.228029" cy="8.39273607" rx="6.99181089" ry="6.99273607"></ellipse>
                    </g>
                </g>
                <path d="M351.389845,115.403148 C365.501027,115.403148 377.165657,120.155224 385.280935,129.906021 C386.886484,131.835146 387.558163,134.232494 387.346254,136.548982 C387.134348,138.865433 386.038876,141.10106 384.109991,142.706763 C382.220755,144.279461 379.882374,144.956272 377.610727,144.784066 C375.3392,144.611869 373.133955,143.591518 371.512273,141.767607 C366.953322,136.335841 360.822703,133.581356 351.389845,133.581356 C342.14513,133.581356 336.084311,136.250494 331.819996,141.123175 C330.032886,143.265559 327.730126,144.468338 325.354224,144.727838 C323.007022,144.984203 320.602354,144.315605 318.669699,142.706763 C316.740814,141.10106 315.645343,138.865433 315.433437,136.548982 C315.221528,134.232494 315.893207,131.835146 317.498756,129.906021 C325.614034,120.155224 337.278664,115.403148 351.389845,115.403148 Z" id="路径-16" stroke="#262626" stroke-width="7" fill="#3A3A3A" fill-rule="nonzero"></path>
                <path d="M351.766457,58.0527845 C379.947618,58.0527845 403.608095,67.5136951 421.935509,86.4009534 C423.683316,88.2021503 424.535628,90.5413527 424.50077,92.8672399 C424.465912,95.1931212 423.543889,97.5057211 421.742895,99.2537168 C419.942053,101.001564 417.603328,101.853959 415.277884,101.819101 C412.952434,101.784242 410.640298,100.862125 408.892639,99.0610811 C394.119013,83.836168 375.374262,76.2309927 351.766457,76.2309927 C328.158653,76.2309927 309.413902,83.836168 294.640275,99.0610811 C292.892617,100.862125 290.580481,101.784242 288.255031,101.819101 C285.929586,101.853959 283.590861,101.001564 281.79002,99.2537168 C279.989026,97.5057211 279.067003,95.1931212 279.032145,92.8672399 C278.997287,90.5413527 279.849598,88.2021503 281.597405,86.4009534 C299.92482,67.5136951 323.585297,58.0527845 351.766457,58.0527845 Z" id="路径-17" stroke="#262626" stroke-width="7" fill="#3A3A3A" fill-rule="nonzero"></path>
                <path d="M352.681232,3.5 C391.881597,3.5 426.381673,17.2418698 455.60241,44.4321794 C457.439783,46.1418809 458.410259,48.43456 458.494049,50.7591882 C458.57784,53.0838306 457.774935,55.4404563 456.065413,57.278042 C454.356035,59.1154721 452.063811,60.0860492 449.739604,60.1698426 C447.415412,60.2536354 445.059273,59.450653 443.222055,57.7410963 C417.273295,33.5954071 387.295459,21.6782082 352.681232,21.6782082 C318.067006,21.6782082 288.08917,33.5954071 262.140409,57.7410963 C260.303192,59.450653 257.947052,60.2536354 255.62286,60.1698426 C253.298654,60.0860492 251.00643,59.1154721 249.297052,57.278042 C247.587529,55.4404563 246.784625,53.0838306 246.868415,50.7591882 C246.952205,48.43456 247.922682,46.1418809 249.760055,44.4321794 C278.980792,17.2418698 313.480868,3.5 352.681232,3.5 Z" id="路径-18" stroke="#262626" stroke-width="7" fill="#3A3A3A" fill-rule="nonzero"></path>
            </g>
            <g id="编组-6" transform="translate(226.2501, 330.0812)">
                <g id="编组-4">
                    <path d="M30.8768307,-3.37430045 C41.0211508,-4.33039959 51.8356141,0.390295999 58.9466142,6.71455284 C63.0006295,10.3200421 65.8197489,14.4342897 66.8836009,18.2389507 C67.4852317,20.3905669 67.5575991,22.4738401 67.0950716,24.4008238 C66.6340967,26.3213391 65.6495282,28.1102942 64.0250523,29.6691231 C61.3900736,32.1976192 59.9548313,35.7887578 58.385805,39.4307432 C55.9179406,45.1590897 53.2278948,51.0046694 47.712536,54.9807396 C43.6507455,57.9089197 38.0452511,59.9083914 29.7001473,59.9083914 C17.9094794,59.9083914 10.0006832,55.8345485 4.84217133,50.4328997 C-2.71138909,42.5233163 -4.33449847,31.5473456 -3.13029213,25.0017513 C-2.0084259,18.9037256 2.03457508,11.3043418 9.09626934,5.4698061 C14.5659616,0.950619459 21.8304074,-2.52167776 30.8768307,-3.37430045 Z" id="路径-6备份" stroke="#9F4200" stroke-width="7" fill="#FFAA4A"></path>
                    <mask id="mask-30" fill="white">
                        <use xlink:href="#path-29"></use>
                    </mask>
                    <path stroke="#9F4200" stroke-width="7" d="M30.8768307,-3.37430045 C41.0211508,-4.33039959 51.8356141,0.390295999 58.9466142,6.71455284 C63.0006295,10.3200421 65.8197489,14.4342897 66.8836009,18.2389507 C67.4852317,20.3905669 67.5575991,22.4738401 67.0950716,24.4008238 C66.6340967,26.3213391 65.6495282,28.1102942 64.0250523,29.6691231 C61.3900736,32.1976192 59.9548313,35.7887578 58.385805,39.4307432 C55.9179406,45.1590897 53.2278948,51.0046694 47.712536,54.9807396 C43.6507455,57.9089197 38.0452511,59.9083914 29.7001473,59.9083914 C17.9094794,59.9083914 10.0006832,55.8345485 4.84217133,50.4328997 C-2.71138909,42.5233163 -4.33449847,31.5473456 -3.13029213,25.0017513 C-2.0084259,18.9037256 2.03457508,11.3043418 9.09626934,5.4698061 C14.5659616,0.950619459 21.8304074,-2.52167776 30.8768307,-3.37430045 Z"></path>
                    <path d="M52.7776273,68.9974955 C63.2056329,68.9974955 71.6592018,60.5429947 71.6592018,50.1138394 C71.6592018,39.684684 76.286416,27.1437488 65.8584104,27.1437488 C61.1859602,27.1437488 54.3771403,40.0089044 49.7361043,45.2180767 C44.8946501,50.6522014 29.7001473,53.4480427 28.3327969,57.8071808 C25.1959899,67.8073781 42.3496216,68.9974955 52.7776273,68.9974955 Z" id="椭圆形" fill="#FDE7CE" filter="url(#filter-31)" mask="url(#mask-30)"></path>
                </g>
                <path d="M13.6158431,43.4894974 C13.0651806,45.6110543 12.7898494,47.5860368 12.7898494,49.4144447 C12.7898494,51.2428526 13.0651806,53.1079051 13.6158431,55.0096021" id="路径-12" stroke="#3A3A3A" stroke-width="7" stroke-linecap="round"></path>
                <path d="M31.7981001,45.9174713 C31.118709,47.3898906 30.5459077,49.2620453 30.079696,51.5339354 C29.6134842,53.8058254 29.2538622,56.1300388 29.0008298,58.5065754" id="路径-13" stroke="#3A3A3A" stroke-width="7" stroke-linecap="round"></path>
            </g>
            <g id="编组-5" transform="translate(34.0424, 329.002)">
                <g id="编组-4备份">
                    <path d="M31.8493594,-3.34874784 C43.4885254,-4.39234823 54.0197606,0.0896252187 60.5904735,6.51059353 C64.3462794,10.1808058 66.8132012,14.4870303 67.6461977,18.7842816 C68.4903038,23.138845 67.7214941,27.5179551 64.9442294,31.4171648 C62.6990125,34.5693927 61.2689945,37.9490986 59.8743994,41.1865042 C57.2860151,47.195166 54.718705,52.6913077 49.2022916,56.3917367 C45.0845591,59.1539257 39.2721074,60.9876306 30.2948213,60.9876306 C18.0782695,60.9876306 9.85594071,56.9514414 4.56459999,51.4996665 C-2.72250168,43.991619 -4.4991537,33.5936743 -3.00663024,26.0361526 C-1.58654668,18.8454366 1.8551921,11.1689748 8.7332169,5.40883716 C14.0719173,0.93783707 21.5133662,-2.42199359 31.8493594,-3.34874784 Z" id="路径-6备份" stroke="#9F4200" stroke-width="7" fill="#FFAA4A"></path>
                    <mask id="mask-33" fill="white">
                        <use xlink:href="#path-32"></use>
                    </mask>
                    <path stroke="#9F4200" stroke-width="7" d="M31.8493594,-3.34874784 C43.4885254,-4.39234823 54.0197606,0.0896252187 60.5904735,6.51059353 C64.3462794,10.1808058 66.8132012,14.4870303 67.6461977,18.7842816 C68.4903038,23.138845 67.7214941,27.5179551 64.9442294,31.4171648 C62.6990125,34.5693927 61.2689945,37.9490986 59.8743994,41.1865042 C57.2860151,47.195166 54.718705,52.6913077 49.2022916,56.3917367 C45.0845591,59.1539257 39.2721074,60.9876306 30.2948213,60.9876306 C18.0782695,60.9876306 9.85594071,56.9514414 4.56459999,51.4996665 C-2.72250168,43.991619 -4.4991537,33.5936743 -3.00663024,26.0361526 C-1.58654668,18.8454366 1.8551921,11.1689748 8.7332169,5.40883716 C14.0719173,0.93783707 21.5133662,-2.42199359 31.8493594,-3.34874784 Z"></path>
                    <path d="M53.3723013,70.0767347 C63.8003069,70.0767347 72.2538758,61.6222339 72.2538758,51.1930785 C72.2538758,40.7639232 75.6887057,26.714265 65.2607,26.714265 C60.5882499,26.714265 56.4201283,40.6406909 51.1672376,46.2973158 C46.6209036,51.1930785 30.6743699,53.1302299 30.6743699,58.8864199 C30.6743699,69.3155753 42.9442956,70.0767347 53.3723013,70.0767347 Z" id="椭圆形" fill="#FDE7CE" filter="url(#filter-34)" mask="url(#mask-33)"></path>
                </g>
                <path d="M12.811882,45.5979212 C12.6421914,47.9703521 12.6421914,49.8354045 12.811882,51.1930785 C12.9815725,52.5507526 13.4477842,54.415805 14.2105171,56.7882359" id="路径-12" stroke="#3A3A3A" stroke-width="7" stroke-linecap="round"></path>
                <path d="M32.4113942,46.5437229 C31.3377545,49.0546587 30.6322302,51.0693802 30.2948213,52.5878875 C29.9574125,54.1063947 29.7243066,56.4390371 29.5955038,59.5858146" id="路径-13" stroke="#3A3A3A" stroke-width="7" stroke-linecap="round"></path>
            </g>
        </g>
    </g>
</svg>